<svg width="33" height="33" viewBox="0 0 33 33" fill="none" xmlns="http://www.w3.org/2000/svg">
<circle cx="16.5" cy="16.5" r="16" fill="#FAB2FB"/>
<g clip-path="url(#clip0_24_317)">
<path d="M17.625 7.5H19.8525C20.0145 8.30437 20.46 9.31913 21.2419 10.326C22.0069 11.3126 23.0216 12 24.375 12V14.25C22.4029 14.25 20.9213 13.3342 19.875 12.1924V19.875C19.875 20.9875 19.5451 22.0751 18.927 23.0001C18.3089 23.9251 17.4304 24.6461 16.4026 25.0718C15.3748 25.4976 14.2438 25.609 13.1526 25.3919C12.0615 25.1749 11.0592 24.6391 10.2725 23.8525C9.48586 23.0658 8.95013 22.0635 8.73309 20.9724C8.51604 19.8812 8.62744 18.7502 9.05318 17.7224C9.47892 16.6946 10.1999 15.8161 11.1249 15.198C12.0499 14.5799 13.1375 14.25 14.25 14.25V16.5C13.5825 16.5 12.93 16.6979 12.375 17.0688C11.8199 17.4396 11.3874 17.9667 11.1319 18.5834C10.8765 19.2001 10.8096 19.8787 10.9399 20.5334C11.0701 21.1881 11.3915 21.7895 11.8635 22.2615C12.3355 22.7335 12.9369 23.0549 13.5916 23.1852C14.2463 23.3154 14.9249 23.2485 15.5416 22.9931C16.1583 22.7376 16.6854 22.3051 17.0562 21.75C17.4271 21.195 17.625 20.5425 17.625 19.875V7.5Z" fill="#282828"/>
</g>
<defs>
<clipPath id="clip0_24_317">
<rect x="7.5" y="7.5" width="18" height="18" rx="9" fill="white"/>
</clipPath>
</defs>
</svg>
