<svg width="33" height="33" viewBox="0 0 33 33" fill="none" xmlns="http://www.w3.org/2000/svg">
<circle cx="16.5" cy="16.5" r="16" fill="#FAB2FB"/>
<path fill-rule="evenodd" clip-rule="evenodd" d="M24.5402 12.1406C24.6654 11.7441 24.5402 11.4558 23.9865 11.4558H22.1454C21.681 11.4558 21.4665 11.7082 21.3414 11.9782C21.3414 11.9782 20.3942 14.2845 19.0717 15.7796C18.6428 16.2121 18.4462 16.3562 18.2139 16.3562C18.0887 16.3562 17.9277 16.2121 17.9277 15.8159V12.122C17.9277 11.6537 17.785 11.4375 17.3916 11.4375H14.4961C14.2099 11.4375 14.0313 11.6537 14.0313 11.8699C14.0313 12.3203 14.6926 12.4286 14.764 13.6896V16.4297C14.764 17.0242 14.6585 17.1328 14.4244 17.1328C13.7989 17.1328 12.2798 14.8086 11.3686 12.1603C11.1914 11.6358 11.0114 11.4375 10.5466 11.4375H8.68793C8.1518 11.4375 8.0625 11.6896 8.0625 11.9599C8.0625 12.4465 8.68793 14.8965 10.9755 18.1393C12.4946 20.3542 14.6571 21.5446 16.6051 21.5446C17.785 21.5446 17.9277 21.2742 17.9277 20.8239V19.1483C17.9277 18.608 18.0349 18.518 18.4104 18.518C18.6783 18.518 19.161 18.6618 20.2512 19.7249C21.502 20.9859 21.7165 21.5625 22.4136 21.5625H24.2544C24.7905 21.5625 25.0408 21.2921 24.8978 20.7697C24.7371 20.2473 24.1292 19.4907 23.3428 18.59C22.9139 18.0859 22.2705 17.5273 22.074 17.2569C21.8061 16.8966 21.8775 16.7524 22.074 16.4283C22.0561 16.4283 24.3082 13.2213 24.5402 12.1392" fill="black"/>
</svg>
