<svg width="20" height="21" viewBox="0 0 20 21" fill="none" xmlns="http://www.w3.org/2000/svg">
<path d="M9.16663 17.1668C8.93052 17.1668 8.73274 17.0868 8.5733 16.9268C8.4133 16.7674 8.3333 16.5696 8.3333 16.3335V11.3335L3.49996 5.16683C3.29163 4.88905 3.26052 4.59739 3.40663 4.29183C3.55219 3.98627 3.80552 3.8335 4.16663 3.8335H15.8333C16.1944 3.8335 16.448 3.98627 16.5941 4.29183C16.7397 4.59739 16.7083 4.88905 16.5 5.16683L11.6666 11.3335V16.3335C11.6666 16.5696 11.5869 16.7674 11.4275 16.9268C11.2675 17.0868 11.0694 17.1668 10.8333 17.1668H9.16663Z" fill="#FBFBFB"/>
</svg>
