<svg width="16" height="16" viewBox="0 0 16 15" fill="none" xmlns="http://www.w3.org/2000/svg">
<path d="M12.84 14.222C12.7683 14.3091 12.6782 14.3793 12.5762 14.4273C12.4742 14.4754 12.3627 14.5002 12.25 14.5C12.1518 14.5006 12.0546 14.4814 11.9641 14.4436C11.8735 14.4058 11.7915 14.3502 11.7229 14.28L8.71895 11.272C8.5785 11.1314 8.49961 10.9408 8.49961 10.742C8.49961 10.5433 8.5785 10.3526 8.71895 10.212C8.78845 10.1422 8.87104 10.0869 8.96199 10.0491C9.05295 10.0113 9.15046 9.99184 9.24895 9.99184C9.34744 9.99184 9.44495 10.0113 9.53591 10.0491C9.62686 10.0869 9.70945 10.1422 9.77895 10.212L11.5 11.944V1.25001C11.5 1.0511 11.579 0.860335 11.7196 0.719682C11.8603 0.57903 12.051 0.500012 12.25 0.500012C12.4489 0.500012 12.6396 0.57903 12.7803 0.719682C12.9209 0.860335 13 1.0511 13 1.25001V11.934L14.722 10.216C14.7914 10.1464 14.874 10.0911 14.9648 10.0534C15.0557 10.0157 15.1531 9.99634 15.2514 9.99634C15.3498 9.99634 15.4472 10.0157 15.5381 10.0534C15.6289 10.0911 15.7115 10.1464 15.781 10.216C15.9214 10.3566 16.0003 10.5473 16.0003 10.746C16.0003 10.9448 15.9214 11.1354 15.781 11.276L12.839 14.222H12.84ZM4.33995 0.778013C4.26831 0.690898 4.17823 0.620773 4.0762 0.572698C3.97417 0.524623 3.86274 0.499798 3.74995 0.500012C3.65184 0.49944 3.55462 0.518624 3.46408 0.55642C3.37354 0.594217 3.29153 0.649853 3.22295 0.720012L0.21995 3.72801C0.0795 3.86864 0.000610352 4.05926 0.000610352 4.25801C0.000610352 4.45676 0.0795 4.64739 0.21995 4.78801C0.289448 4.8578 0.372043 4.91317 0.462994 4.95095C0.553946 4.98873 0.651463 5.00818 0.74995 5.00818C0.848437 5.00818 0.945955 4.98873 1.03691 4.95095C1.12786 4.91317 1.21045 4.8578 1.27995 4.78801L2.99995 3.05701V13.75C2.99995 13.9489 3.07897 14.1397 3.21962 14.2803C3.36027 14.421 3.55104 14.5 3.74995 14.5C3.94886 14.5 4.13963 14.421 4.28028 14.2803C4.42093 14.1397 4.49995 13.9489 4.49995 13.75V3.06601L6.22195 4.78401C6.29143 4.85365 6.37396 4.90889 6.46482 4.94658C6.55568 4.98428 6.65308 5.00368 6.75145 5.00368C6.84982 5.00368 6.94722 4.98428 7.03808 4.94658C7.12894 4.90889 7.21147 4.85365 7.28095 4.78401C7.4214 4.64339 7.50029 4.45276 7.50029 4.25401C7.50029 4.05526 7.4214 3.86464 7.28095 3.72401L4.33895 0.777012L4.33995 0.778013Z" fill="#FBFBFB"/>
</svg>
