<svg width="33" height="33" viewBox="0 0 33 33" fill="none" xmlns="http://www.w3.org/2000/svg">
<circle cx="16.5" cy="16" r="16" fill="#FBFBFB"/>
<path d="M16.5002 6.83325C11.4402 6.83325 7.3335 10.9399 7.3335 15.9999C7.3335 21.0599 11.4402 25.1666 16.5002 25.1666H21.0835V23.3333H16.5002C12.5218 23.3333 9.16683 19.9783 9.16683 15.9999C9.16683 12.0216 12.5218 8.66659 16.5002 8.66659C20.4785 8.66659 23.8335 12.0216 23.8335 15.9999V17.3108C23.8335 18.0349 23.1827 18.7499 22.4585 18.7499C21.7343 18.7499 21.0835 18.0349 21.0835 17.3108V15.9999C21.0835 13.4699 19.0302 11.4166 16.5002 11.4166C13.9702 11.4166 11.9168 13.4699 11.9168 15.9999C11.9168 18.5299 13.9702 20.5833 16.5002 20.5833C17.7652 20.5833 18.9202 20.0699 19.7452 19.2358C20.341 20.0516 21.3677 20.5833 22.4585 20.5833C24.2643 20.5833 25.6668 19.1166 25.6668 17.3108V15.9999C25.6668 10.9399 21.5602 6.83325 16.5002 6.83325ZM16.5002 18.7499C14.9785 18.7499 13.7502 17.5216 13.7502 15.9999C13.7502 14.4783 14.9785 13.2499 16.5002 13.2499C18.0218 13.2499 19.2502 14.4783 19.2502 15.9999C19.2502 17.5216 18.0218 18.7499 16.5002 18.7499Z" fill="#121212"/>
</svg>
