<svg width="12" height="12" viewBox="0 0 12 12" fill="none" xmlns="http://www.w3.org/2000/svg">
<path d="M10.55 4.4376L6.34995 8.6501C6.29995 8.7001 6.24579 8.73543 6.18745 8.7561C6.12912 8.7771 6.06662 8.7876 5.99995 8.7876C5.93329 8.7876 5.87079 8.7771 5.81245 8.7561C5.75412 8.73543 5.69995 8.7001 5.64995 8.6501L1.43745 4.4376C1.32078 4.32093 1.26245 4.1751 1.26245 4.0001C1.26245 3.8251 1.32495 3.6751 1.44995 3.5501C1.57495 3.4251 1.72078 3.3626 1.88745 3.3626C2.05412 3.3626 2.19995 3.4251 2.32495 3.5501L5.99995 7.2251L9.67495 3.5501C9.79162 3.43343 9.93529 3.3751 10.106 3.3751C10.277 3.3751 10.425 3.4376 10.55 3.5626C10.675 3.6876 10.7375 3.83343 10.7375 4.0001C10.7375 4.16676 10.675 4.3126 10.55 4.4376Z" fill="#FBFBFB"/>
</svg>
