<svg width="16" height="16" viewBox="0 0 16 16" fill="none" xmlns="http://www.w3.org/2000/svg">
<path d="M12.9496 3.05417C12.3008 2.39891 11.5289 1.8783 10.6782 1.52227C9.82758 1.16623 8.91496 0.981783 7.99281 0.979513C7.07066 0.977244 6.15715 1.1572 5.30476 1.50904C4.45237 1.86089 3.6779 2.37768 3.02584 3.02974C2.37378 3.6818 1.85698 4.45628 1.50514 5.30867C1.15329 6.16106 0.973338 7.07457 0.975607 7.99672C0.977877 8.91887 1.16233 9.83148 1.51836 10.6821C1.8744 11.5328 2.395 12.3047 3.05026 12.9535C3.69911 13.6088 4.47102 14.1294 5.32167 14.4854C6.17232 14.8415 7.08494 15.0259 8.00709 15.0282C8.92923 15.0305 9.84275 14.8505 10.6951 14.4987C11.5475 14.1468 12.322 13.63 12.9741 12.978C13.6261 12.3259 14.1429 11.5514 14.4948 10.699C14.8466 9.84665 15.0266 8.93314 15.0243 8.01099C15.022 7.08884 14.8376 6.17623 14.4815 5.32558C14.1255 4.47493 13.6049 3.70301 12.9496 3.05417ZM1.99995 8.00386C1.99973 7.47283 2.07014 6.94413 2.20933 6.43167C2.4387 6.92542 2.77183 7.35198 2.99839 7.85854C3.2912 8.50979 4.07745 8.32917 4.42464 8.89979C4.73276 9.40635 4.4037 10.047 4.63432 10.577C4.80182 10.9617 5.19682 11.0457 5.46932 11.327C5.74776 11.6107 5.74182 11.9995 5.78432 12.3695C5.83228 12.8042 5.91007 13.2351 6.01714 13.6592C6.01714 13.6623 6.01714 13.6657 6.01964 13.6689C3.6812 12.8476 1.99995 10.6185 1.99995 8.00386ZM7.99995 14.0039C7.66487 14.0037 7.33038 13.9757 6.99995 13.9201C7.00339 13.8354 7.00495 13.7564 7.01339 13.7014C7.08932 13.2045 7.33807 12.7185 7.6737 12.3467C8.00526 11.9798 8.45964 11.7317 8.73964 11.3154C9.01401 10.9092 9.0962 10.3623 8.98307 9.8876C8.81651 9.18635 7.8637 8.95229 7.34995 8.57198C7.05464 8.35323 6.79182 8.0151 6.40401 7.98761C6.22526 7.9751 6.07557 8.01354 5.89839 7.96792C5.73589 7.92573 5.60839 7.83823 5.43526 7.86104C5.11182 7.90354 4.90776 8.24917 4.56026 8.20229C4.23057 8.15823 3.89089 7.77229 3.81589 7.45823C3.71964 7.05448 4.03901 6.92354 4.3812 6.88761C4.52401 6.87261 4.68432 6.85636 4.82151 6.90885C5.00214 6.97573 5.08745 7.15261 5.24964 7.24198C5.5537 7.40885 5.61526 7.14229 5.5687 6.87229C5.49901 6.46792 5.41776 6.30323 5.77839 6.02479C6.02839 5.83292 6.24214 5.69417 6.20214 5.34948C6.17839 5.14698 6.06745 5.05542 6.17089 4.85386C6.24932 4.70042 6.46464 4.56198 6.60495 4.47042C6.96714 4.23417 8.15651 4.25167 7.67057 3.59042C7.52776 3.39636 7.26432 3.04948 7.01432 3.00198C6.70182 2.94292 6.56307 3.29167 6.34526 3.44542C6.12026 3.60448 5.68214 3.78511 5.45682 3.53917C5.1537 3.20823 5.65776 3.09979 5.76932 2.86854C5.82089 2.76073 5.76932 2.61104 5.68245 2.47011C5.79516 2.42261 5.90974 2.37854 6.0262 2.33792C6.09918 2.39183 6.18577 2.42429 6.2762 2.43167C6.48526 2.44542 6.68245 2.33229 6.86495 2.47479C7.06745 2.63104 7.21339 2.82854 7.48214 2.87729C7.74214 2.92448 8.01745 2.77292 8.08182 2.50667C8.12089 2.34479 8.08182 2.17386 8.04432 2.00667C9.21308 2.01339 10.3541 2.36341 11.3256 3.01323C11.2631 2.98948 11.1884 2.99229 11.0962 3.03511C10.9065 3.12323 10.6378 3.34761 10.6156 3.57011C10.5903 3.82261 10.9628 3.85823 11.1396 3.85823C11.4053 3.85823 11.6743 3.73948 11.5887 3.43261C11.5515 3.29948 11.5009 3.16104 11.4193 3.07729C11.6154 3.21334 11.8032 3.36089 11.9818 3.51917C11.979 3.52198 11.9762 3.52448 11.9734 3.52761C11.7934 3.71511 11.5843 3.86354 11.4612 4.09167C11.3743 4.25229 11.2765 4.32854 11.1006 4.37011C11.0037 4.39292 10.8931 4.40136 10.8118 4.46636C10.5856 4.64448 10.7143 5.07261 10.9287 5.20104C11.1996 5.36323 11.6015 5.28698 11.8059 5.05542C11.9656 4.87417 12.0596 4.55948 12.3468 4.55979C12.4733 4.55953 12.5947 4.60904 12.6849 4.69761C12.8037 4.82073 12.7803 4.93573 12.8056 5.08948C12.8503 5.36261 13.0912 5.21448 13.2378 5.07667C13.3446 5.2668 13.441 5.46261 13.5265 5.66323C13.3653 5.89542 13.2371 6.14854 12.8493 5.87792C12.6171 5.71573 12.4743 5.48042 12.1828 5.40729C11.9281 5.34479 11.6671 5.40979 11.4156 5.45323C11.1296 5.50292 10.7906 5.52479 10.5737 5.74136C10.364 5.95011 10.2531 6.22948 10.0299 6.43917C9.59839 6.84542 9.4162 7.28886 9.69557 7.86323C9.96432 8.41542 10.5265 8.71511 11.1331 8.67573C11.729 8.63604 12.3481 8.29042 12.3309 9.15635C12.3246 9.46292 12.3887 9.67511 12.4828 9.95979C12.5699 10.2223 12.564 10.4767 12.584 10.7476C12.603 11.0649 12.6526 11.3796 12.7321 11.6873C12.172 12.4085 11.4545 12.9921 10.6343 13.3936C9.81416 13.7951 8.9131 14.0038 7.99995 14.0039Z" fill="#FAB2FB"/>
</svg>
