<svg width="25" height="24" viewBox="0 0 25 24" fill="none" xmlns="http://www.w3.org/2000/svg">
<g clip-path="url(#clip0_24_312)">
<path d="M18.1134 15.5157C19.5658 13.5337 20.2163 11.0764 19.9348 8.63539C19.6533 6.19438 18.4605 3.94967 16.595 2.35036C14.7295 0.751044 12.329 -0.0849322 9.87362 0.00967753C7.41825 0.104287 5.08915 1.12251 3.35227 2.86062C1.6154 4.59874 0.598846 6.92858 0.505993 9.38401C0.413141 11.8394 1.25083 14.2394 2.85148 16.1037C4.45213 17.9681 6.69769 19.1593 9.1389 19.439C11.5801 19.7188 14.0369 19.0665 16.0179 17.6127H16.0164C16.0614 17.6727 16.1094 17.7297 16.1634 17.7852L21.9384 23.5602C22.2196 23.8416 22.6012 23.9998 22.9991 24C23.397 24.0001 23.7787 23.8422 24.0601 23.5609C24.3416 23.2796 24.4998 22.8981 24.4999 22.5002C24.5001 22.1023 24.3421 21.7206 24.0609 21.4392L18.2859 15.6642C18.2322 15.6099 18.1746 15.5597 18.1134 15.5142V15.5157ZM18.5004 9.74966C18.5004 10.8331 18.287 11.9059 17.8724 12.9068C17.4578 13.9077 16.8501 14.8172 16.084 15.5833C15.3179 16.3494 14.4084 16.9571 13.4075 17.3717C12.4066 17.7863 11.3338 17.9997 10.2504 17.9997C9.16696 17.9997 8.09417 17.7863 7.09323 17.3717C6.0923 16.9571 5.18282 16.3494 4.41674 15.5833C3.65066 14.8172 3.04297 13.9077 2.62836 12.9068C2.21376 11.9059 2.00037 10.8331 2.00037 9.74966C2.00037 7.56163 2.86956 5.46321 4.41674 3.91603C5.96391 2.36886 8.06233 1.49966 10.2504 1.49966C12.4384 1.49966 14.5368 2.36886 16.084 3.91603C17.6312 5.46321 18.5004 7.56163 18.5004 9.74966Z" fill="#121212"/>
</g>
<defs>
<clipPath id="clip0_24_312">
<rect width="24" height="24" fill="white" transform="translate(0.5)"/>
</clipPath>
</defs>
</svg>
